<?xml version="1.0" encoding="utf-8"?>
<!-- Generator: Adobe Illustrator 18.1.1, SVG Export Plug-In . SVG Version: 6.00 Build 0)  -->
<svg version="1.2" baseProfile="tiny" id="Layer_1" xmlns="http://www.w3.org/2000/svg" xmlns:xlink="http://www.w3.org/1999/xlink"
	 x="0px" y="0px" viewBox="0 0 500 122.6" xml:space="preserve">
<g>
	<g>
		<path fill="#FFFFFF" d="M152.1,4c-1.1-0.5-2.3-0.8-3.5-0.8c-3.3,0-6.2,1.9-7.6,4.9L96,105.9c-2,4.2-0.1,9.2,4.1,11.1
			c1.1,0.5,2.3,0.8,3.5,0.8c3.2,0,6.2-1.9,7.6-4.9l44.9-97.8C158.1,11,156.3,6,152.1,4z"/>
		<path fill="#FFFFFF" d="M107.3,8.7C106.5,6.6,105,5,102.9,4c-1.1-0.5-2.3-0.8-3.5-0.8c-3.3,0-6.2,1.9-7.6,4.9L55.8,89.4l-36-81.4
			c-1.4-2.9-4.4-4.9-7.6-4.9C11,3.2,9.8,3.5,8.7,4C6.7,5,5.1,6.6,4.4,8.7s-0.7,4.4,0.3,6.4L48.2,113c1.4,2.9,4.4,4.8,7.6,4.8
			s6.2-1.9,7.6-4.9L107,15.2C107.9,13.1,108,10.8,107.3,8.7z"/>
		<path fill="#FFFFFF" d="M237.6,81.8c-1.3-3.1-4.4-5-7.7-5c-0.6,0-1.1,0.1-1.6,0.2c-0.2,0-5.3,0.9-8.3,1.9l-1.4,0.5l3.2,8.2
			l11.1,25.5c1.3,3.1,4.4,5,7.7,5c1.2,0,2.3-0.2,3.3-0.7c4.2-1.8,6.2-6.8,4.4-11L237.6,81.8z"/>
		<path fill="#FFFFFF" d="M258.9,54.5l-0.8,0l0,0l-2.8,0l-0.7,0l-1.4,0v0.1c-9.6,0.3-18.6,1.1-26.9,2.2L204.7,8.2
			c-1.4-3-4.4-4.9-7.6-4.9c-3.3,0-6.3,1.9-7.6,4.9L145.8,106c-1.9,4.2,0,9.2,4.2,11.1c1.1,0.5,2.3,0.7,3.4,0.7
			c3.3,0,6.3-1.9,7.7-4.9l3.4-7.7c16.6-21.8,45.5-32.6,91-34l3.4,0c0,0,0,0,0,0c3.3,0,6.4-2,7.7-5c0.5-1.1,0.7-2.2,0.7-3.3
			C267.3,58.2,263.6,54.5,258.9,54.5z M180,70.5L197,32l12.3,27.8C198.1,62.5,188.5,66,180,70.5z"/>
	</g>
	<g>
		<path fill="#FFFFFF" d="M495.9,8.7c-0.8-2.1-2.3-3.8-4.3-4.7c-1.1-0.5-2.3-0.8-3.5-0.8c-3.3,0-6.2,1.9-7.6,4.9l-35.9,81.3
			l-36-81.4c-1.4-2.9-4.4-4.9-7.6-4.9c-1.2,0-2.4,0.3-3.5,0.8c-2,0.9-3.6,2.6-4.3,4.7s-0.7,4.4,0.3,6.4l43.6,97.9
			c1.4,2.9,4.4,4.8,7.6,4.8c3.2,0,6.2-1.9,7.6-4.9l43.6-97.8C496.6,13.1,496.7,10.8,495.9,8.7z"/>
		<path fill="#FFFFFF" d="M299.6,82.9v26.5c0,4.6,3.8,8.4,8.4,8.4s8.4-3.8,8.4-8.4V74.5H308C303.4,74.5,299.6,78.3,299.6,82.9z"/>
		<path fill="#FFFFFF" d="M370.9,7.4c-8-3.7-15.7-3.8-16.6-3.8H308c-4.6,0-8.4,3.8-8.4,8.4v30.7c0,4.6,3.8,8.4,8.4,8.4h8.4l0-30.7
			h37.9c0.2,0,17.7,0.4,17.7,16.6c0,15.1-10.6,17.4-16.9,17.4h-74c-4.6,0-8.4,3.8-8.4,8.4s3.8,8.4,8.4,8.4h74
			c2.4,0,14.8-0.5,24.2-9.7c6.4-6.3,9.5-14.3,9.5-24.5C388.8,23.7,382.1,12.6,370.9,7.4z"/>
		<path fill="#FFFFFF" d="M368.5,71.6l-7.6,3.5c-2,1-3.5,2.7-4.3,4.8c-0.7,2.1-0.6,4.4,0.4,6.4l12.9,26.8c1.4,2.9,4.4,4.7,7.6,4.7
			c1.3,0,2.5-0.3,3.6-0.8c4.2-2,5.9-7,3.9-11.2L368.5,71.6z"/>
	</g>
</g>
</svg>
